PathFileType	4	(X/Y/Z)	c:/Users/goper/Files/vsCode/490R/osim_files/C12/C12_SSWS_04.trc
DataRate	CameraRate	NumFrames	NumMarkers	Units                	OrigDataRate	OrigDataStartFrame	OrigNumFrames
120.00	120.00	6	36	mm	120.0	761	1216
                Frame#	Time	LPSIS			LASIS			LTH1			LTH2			LTH3			LTH4			LLFE			LMFE			LSH1			LSH2			LSH3			LSH4			LLMAL			LMMAL			LCAL			LMTP5			LTOE			LMTP1			RPSIS			RASIS			RTH1			RTH2			RTH3			RTH4			RLFE			RMFE			RSH1			RSH2			RSH3			RSH4			RLMAL			RMMAL			RCAL			RMTP1			RTOE			RMTP5		
		X1	Y1	Z1	X2	Y2	Z2	X3	Y3	Z3	X4	Y4	Z4	X5	Y5	Z5	X6	Y6	Z6	X7	Y7	Z7	X8	Y8	Z8	X9	Y9	Z9	X10	Y10	Z10	X11	Y11	Z11	X12	Y12	Z12	X13	Y13	Z13	X14	Y14	Z14	X15	Y15	Z15	X16	Y16	Z16	X17	Y17	Z17	X18	Y18	Z18	X19	Y19	Z19	X20	Y20	Z20	X21	Y21	Z21	X22	Y22	Z22	X23	Y23	Z23	X24	Y24	Z24	X25	Y25	Z25	X26	Y26	Z26	X27	Y27	Z27	X28	Y28	Z28	X29	Y29	Z29	X30	Y30	Z30	X31	Y31	Z31	X32	Y32	Z32	X33	Y33	Z33	X34	Y34	Z34	X35	Y35	Z35	X36	Y36	Z36

761	6.33333	-2217.97852	1088.87317	353.53131	-2393.50659	1042.52295	411.19040	-2301.72241	756.38934	447.69067	-2307.94336	713.65851	443.69028	-2362.38281	762.09180	456.83014	-2360.86938	717.04724	450.57269	-2350.79834	541.10822	394.97849	-2347.60327	541.56348	269.54132	-2284.56665	447.25690	409.96741	-2285.30811	400.31204	415.54510	-2345.30859	439.51233	401.72702	-2334.96729	393.13065	405.40469	-2273.30444	108.27857	357.64413	-2283.15649	113.40791	280.98517	-2208.55542	85.41541	323.00967	-2402.49146	44.94972	382.55884	-2454.32080	73.11440	313.25128	-2424.74512	48.81089	271.79340	-2207.21045	1084.14758	241.80978	-2385.85010	1053.67456	156.34901	-2346.32056	769.20459	77.60507	-2367.56641	727.02893	78.04937	-2409.86792	787.74677	74.16850	-2423.00342	742.44666	72.66705	-2428.20874	558.90009	93.32753	-2461.98340	551.92786	226.28947	-2373.96338	477.75153	81.72255	-2338.13574	452.36633	76.51685	-2329.30200	521.58435	91.84959	-2302.46753	487.81766	87.12519	-2131.81445	253.56779	141.12833	-2172.56250	241.98218	216.32838	-2071.87744	276.72122	200.66937	-2198.15381	100.37244	204.06833	-2233.16602	85.95358	162.88567	-2173.67773	95.72097	101.96060
762	6.34167	-2227.97070	1089.76562	353.05450	-2403.06567	1042.86121	411.80600	-2308.06177	758.04169	447.42044	-2314.38696	714.04456	442.65921	-2368.69702	761.80463	456.56299	-2365.84570	716.87189	450.35492	-2352.69897	540.44812	394.88260	-2350.47998	541.36664	269.43091	-2286.11035	447.83807	409.75439	-2286.34058	400.91986	415.28735	-2346.66260	439.75723	401.92886	-2336.15552	393.44348	405.59256	-2273.79224	108.88841	357.50446	-2283.54785	113.78960	280.90378	-2208.82397	85.98671	322.81439	-2402.60742	44.95511	382.49551	-2454.62476	72.98759	313.25671	-2425.09497	48.92046	271.67673	0.00000	0.00000	0.00000	-2396.18384	1054.49744	157.09821	-2360.43628	771.43573	77.00125	-2383.38013	728.99139	77.86800	-2423.71533	790.86584	74.16628	-2437.57544	745.75409	72.62314	-2446.18579	561.82220	94.01212	-2479.37280	555.98663	226.60611	-2394.15967	478.78860	82.15876	-2359.27026	451.88025	76.65565	-2348.36304	520.93481	92.24814	-2322.50586	486.40314	87.58571	-2158.13184	246.84004	140.62051	-2200.24658	235.70982	216.12039	-2098.44165	266.06415	200.73698	-2233.34106	96.20612	201.86589	-2268.76562	83.85782	160.57487	-2208.76929	91.47798	99.77901
763	6.35000	-2237.73364	1090.41870	352.47678	-2412.53076	1042.98547	412.34668	-2314.19141	758.77374	446.98618	-2319.56396	714.66376	442.28690	-2374.55859	761.39276	457.10059	-2371.55737	716.72406	450.18277	-2355.13794	540.45288	394.88531	-2353.33130	541.18158	269.33377	-2287.34888	448.32251	409.43103	-2287.77026	401.46780	415.13248	-2347.88623	440.00430	402.04861	-2337.07593	393.63797	405.60938	-2274.10840	109.54244	357.35028	-2283.45117	113.53062	280.50793	0.00000	0.00000	0.00000	-2402.70874	44.95143	382.45667	-2454.78931	72.76785	313.20532	-2421.51562	45.26327	270.79364	0.00000	0.00000	0.00000	-2406.63257	1055.13977	157.86551	-2374.72949	773.15643	76.32756	-2397.46362	731.50977	76.78988	-2437.27661	793.72168	74.21445	-2452.10547	748.89386	72.71040	-2463.74170	564.62817	94.85540	-2496.24805	559.85931	227.21095	-2414.41772	479.11688	82.51067	-2380.10620	451.61148	77.02108	-2366.55957	520.13055	92.56209	-2342.19751	484.61829	87.77412	-2185.95459	239.39021	140.15205	-2228.01782	229.53116	215.52658	-2125.43677	254.69812	200.68909	-2269.09668	91.90390	199.54756	-2305.24341	82.27584	158.07106	-2244.54517	87.18201	97.28445
764	6.35833	-2247.58325	1090.77820	351.82040	-2422.48706	1043.12366	412.97110	-2320.87402	759.31659	446.67233	-2325.00244	715.17407	441.89740	-2380.51758	761.24347	456.26147	-2376.97485	716.52374	449.87305	-2357.51074	540.36603	394.94672	-2356.12476	540.98962	269.25989	-2288.88354	448.85971	409.25528	-2288.70801	401.89594	414.93979	-2349.49951	440.22977	402.12689	-2338.34741	393.88339	405.69998	-2273.82129	110.94610	358.07443	-2283.87769	113.99731	280.44226	0.00000	0.00000	0.00000	-2402.81567	44.93572	382.45364	-2455.40942	72.63144	312.90073	-2421.94897	45.31857	270.43298	-2237.59497	1086.87695	240.33064	-2417.57520	1055.74719	158.51247	-2387.58862	774.85358	75.88914	-2411.92773	733.46222	76.27842	-2450.55713	796.21509	74.23331	-2466.24243	751.69208	72.73521	-2482.06763	566.72412	96.47679	-2512.39648	563.53271	227.84889	-2433.88867	479.71320	83.11596	-2400.87231	450.90735	77.49120	-2384.61279	518.93073	92.99429	-2361.31299	482.67734	88.03563	-2216.83325	230.35881	140.18025	-2258.00073	222.82310	215.07674	-2152.89941	242.78540	200.34201	-2306.24365	87.77991	197.01317	-2341.88477	80.52319	155.51625	-2281.00732	83.13805	94.88386
765	6.36667	-2257.32690	1090.98193	351.16727	-2431.94800	1043.12866	413.44992	-2326.07910	759.06415	446.25146	-2330.46387	715.82532	441.47791	-2386.80200	761.13922	456.03943	-2382.61816	716.27045	449.55380	-2359.89722	540.22040	395.07013	-2358.75269	540.75336	269.26721	-2290.40015	449.33490	409.12390	-2290.20947	402.40216	414.86685	-2351.24756	440.47214	402.18457	-2339.91284	394.34146	405.65732	-2274.14575	111.40079	358.00012	-2284.20020	114.27897	280.33810	0.00000	0.00000	0.00000	-2402.91357	44.95250	382.42999	-2455.51172	72.48649	312.96381	-2422.08081	45.30827	270.39624	-2247.47583	1086.30518	238.97757	-2427.05933	1056.00867	159.12883	-2407.55933	774.52679	74.33038	-2426.79614	734.77698	76.35554	-2463.78174	798.51855	74.36759	-2480.08325	754.18817	72.90830	-2499.44263	568.49988	97.91007	-2527.91577	566.93439	228.63774	-2453.24097	480.16769	83.94086	-2422.15259	449.92328	78.06658	-2402.77539	517.25354	93.38203	-2380.88965	480.04550	88.23519	-2246.06885	221.87093	139.64320	-2287.86157	215.82980	214.34119	-2181.41187	230.36092	199.95454	-2342.48608	83.95594	194.81270	-2379.33960	79.24267	152.78856	-2318.03271	79.12646	92.48299
766	6.37500	-2266.83789	1090.99915	350.38455	-2441.03052	1042.96619	413.59106	-2332.50854	760.49622	445.93448	-2335.94238	716.37842	441.01813	-2392.84961	760.82782	455.78909	-2387.89526	716.02045	449.30984	-2361.27222	540.39130	394.80704	-2361.89600	540.59784	269.36267	-2292.45142	449.91248	409.22052	-2291.74658	402.93326	414.85297	-2353.11353	440.71188	402.09052	-2341.49634	394.62137	405.50406	-2274.50464	112.00881	357.92136	-2283.60376	115.03561	280.96188	0.00000	0.00000	0.00000	-2402.88281	44.92737	382.41925	-2455.60571	72.28645	312.94073	-2422.18164	45.28345	270.36148	-2257.37671	1086.02258	237.97972	-2437.04541	1056.03906	159.62216	-2420.27930	775.50098	73.95423	-2439.81348	736.60425	75.65247	-2476.91431	800.48553	74.55106	-2493.62109	756.30908	73.27399	-2513.05518	572.12903	98.26104	-2541.62109	568.92456	229.25465	-2472.47363	480.13391	84.75755	-2443.62671	450.31506	80.10660	-2420.26587	515.38666	94.01946	-2399.63818	477.88232	89.36546	-2275.90259	213.12958	138.92256	-2317.95312	208.64223	213.44061	-2210.62793	217.62196	199.27066	-2380.18872	80.35935	192.44075	-2416.68481	78.03909	150.48222	-2355.68896	75.32575	90.30038
